<mxfile host="app.diagrams.net" agent="Mozilla/5.0 (Windows NT 10.0; Win64; x64) AppleWebKit/537.36 (KHTML, like Gecko) Chrome/131.0.0.0 Safari/537.36" version="25.0.3">
  <diagram name="Page-1" id="2YBvvXClWsGukQMizWep">
    <mxGraphModel dx="1312" dy="557" grid="1" gridSize="10" guides="1" tooltips="1" connect="1" arrows="1" fold="1" page="1" pageScale="1" pageWidth="850" pageHeight="1100" math="0" shadow="0">
      <root>
        <mxCell id="0" />
        <mxCell id="1" parent="0" />
        <mxCell id="_xnIuPefK0gF_MjHe_i0-9" value="Trainer" style="shape=umlLifeline;perimeter=lifelinePerimeter;whiteSpace=wrap;html=1;container=1;dropTarget=0;collapsible=0;recursiveResize=0;outlineConnect=0;portConstraint=eastwest;newEdgeStyle={&quot;curved&quot;:0,&quot;rounded&quot;:0};" vertex="1" parent="1">
          <mxGeometry x="40" y="40" width="120" height="480" as="geometry" />
        </mxCell>
        <mxCell id="_xnIuPefK0gF_MjHe_i0-19" value="" style="html=1;points=[[0,0,0,0,5],[0,1,0,0,-5],[1,0,0,0,5],[1,1,0,0,-5]];perimeter=orthogonalPerimeter;outlineConnect=0;targetShapes=umlLifeline;portConstraint=eastwest;newEdgeStyle={&quot;curved&quot;:0,&quot;rounded&quot;:0};" vertex="1" parent="_xnIuPefK0gF_MjHe_i0-9">
          <mxGeometry x="55" y="64" width="10" height="396" as="geometry" />
        </mxCell>
        <mxCell id="_xnIuPefK0gF_MjHe_i0-11" value="Software" style="shape=umlLifeline;perimeter=lifelinePerimeter;whiteSpace=wrap;html=1;container=1;dropTarget=0;collapsible=0;recursiveResize=0;outlineConnect=0;portConstraint=eastwest;newEdgeStyle={&quot;curved&quot;:0,&quot;rounded&quot;:0};" vertex="1" parent="1">
          <mxGeometry x="200" y="40" width="120" height="480" as="geometry" />
        </mxCell>
        <mxCell id="_xnIuPefK0gF_MjHe_i0-22" value="" style="html=1;points=[[0,0,0,0,5],[0,1,0,0,-5],[1,0,0,0,5],[1,1,0,0,-5]];perimeter=orthogonalPerimeter;outlineConnect=0;targetShapes=umlLifeline;portConstraint=eastwest;newEdgeStyle={&quot;curved&quot;:0,&quot;rounded&quot;:0};" vertex="1" parent="_xnIuPefK0gF_MjHe_i0-11">
          <mxGeometry x="55" y="151" width="10" height="56" as="geometry" />
        </mxCell>
        <mxCell id="_xnIuPefK0gF_MjHe_i0-12" value="Member" style="shape=umlLifeline;perimeter=lifelinePerimeter;whiteSpace=wrap;html=1;container=1;dropTarget=0;collapsible=0;recursiveResize=0;outlineConnect=0;portConstraint=eastwest;newEdgeStyle={&quot;curved&quot;:0,&quot;rounded&quot;:0};" vertex="1" parent="1">
          <mxGeometry x="365" y="40" width="120" height="480" as="geometry" />
        </mxCell>
        <mxCell id="_xnIuPefK0gF_MjHe_i0-17" value="" style="html=1;points=[[0,0,0,0,5],[0,1,0,0,-5],[1,0,0,0,5],[1,1,0,0,-5]];perimeter=orthogonalPerimeter;outlineConnect=0;targetShapes=umlLifeline;portConstraint=eastwest;newEdgeStyle={&quot;curved&quot;:0,&quot;rounded&quot;:0};" vertex="1" parent="_xnIuPefK0gF_MjHe_i0-12">
          <mxGeometry x="55" y="64" width="10" height="56" as="geometry" />
        </mxCell>
        <mxCell id="_xnIuPefK0gF_MjHe_i0-26" value="" style="html=1;points=[[0,0,0,0,5],[0,1,0,0,-5],[1,0,0,0,5],[1,1,0,0,-5]];perimeter=orthogonalPerimeter;outlineConnect=0;targetShapes=umlLifeline;portConstraint=eastwest;newEdgeStyle={&quot;curved&quot;:0,&quot;rounded&quot;:0};" vertex="1" parent="_xnIuPefK0gF_MjHe_i0-12">
          <mxGeometry x="55" y="230" width="10" height="56" as="geometry" />
        </mxCell>
        <mxCell id="_xnIuPefK0gF_MjHe_i0-31" value="" style="html=1;points=[[0,0,0,0,5],[0,1,0,0,-5],[1,0,0,0,5],[1,1,0,0,-5]];perimeter=orthogonalPerimeter;outlineConnect=0;targetShapes=umlLifeline;portConstraint=eastwest;newEdgeStyle={&quot;curved&quot;:0,&quot;rounded&quot;:0};" vertex="1" parent="_xnIuPefK0gF_MjHe_i0-12">
          <mxGeometry x="55" y="314" width="10" height="56" as="geometry" />
        </mxCell>
        <mxCell id="_xnIuPefK0gF_MjHe_i0-32" value="" style="html=1;points=[[0,0,0,0,5],[0,1,0,0,-5],[1,0,0,0,5],[1,1,0,0,-5]];perimeter=orthogonalPerimeter;outlineConnect=0;targetShapes=umlLifeline;portConstraint=eastwest;newEdgeStyle={&quot;curved&quot;:0,&quot;rounded&quot;:0};" vertex="1" parent="_xnIuPefK0gF_MjHe_i0-12">
          <mxGeometry x="56" y="404" width="10" height="56" as="geometry" />
        </mxCell>
        <mxCell id="_xnIuPefK0gF_MjHe_i0-20" value="1. request member details" style="html=1;verticalAlign=bottom;endArrow=block;curved=0;rounded=0;entryX=0;entryY=0;entryDx=0;entryDy=5;entryPerimeter=0;" edge="1" parent="1">
          <mxGeometry width="80" relative="1" as="geometry">
            <mxPoint x="105" y="104" as="sourcePoint" />
            <mxPoint x="420" y="104" as="targetPoint" />
          </mxGeometry>
        </mxCell>
        <mxCell id="_xnIuPefK0gF_MjHe_i0-21" value="2. member Details" style="html=1;verticalAlign=bottom;endArrow=open;dashed=1;endSize=8;curved=0;rounded=0;" edge="1" parent="1">
          <mxGeometry x="0.0016" relative="1" as="geometry">
            <mxPoint x="424.5" y="160" as="sourcePoint" />
            <mxPoint x="107" y="160" as="targetPoint" />
            <mxPoint as="offset" />
          </mxGeometry>
        </mxCell>
        <mxCell id="_xnIuPefK0gF_MjHe_i0-23" value="" style="endArrow=open;endFill=1;endSize=12;html=1;rounded=0;" edge="1" parent="1">
          <mxGeometry width="160" relative="1" as="geometry">
            <mxPoint x="105" y="191" as="sourcePoint" />
            <mxPoint x="255" y="191" as="targetPoint" />
          </mxGeometry>
        </mxCell>
        <mxCell id="_xnIuPefK0gF_MjHe_i0-25" value="&lt;font style=&quot;font-size: 11px;&quot;&gt;3. mark Attendance&lt;/font&gt;" style="text;strokeColor=none;fillColor=none;align=left;verticalAlign=top;spacingLeft=4;spacingRight=4;overflow=hidden;rotatable=0;points=[[0,0.5],[1,0.5]];portConstraint=eastwest;whiteSpace=wrap;html=1;" vertex="1" parent="1">
          <mxGeometry x="127" y="170" width="110" height="16" as="geometry" />
        </mxCell>
        <mxCell id="_xnIuPefK0gF_MjHe_i0-27" value="" style="endArrow=open;endFill=1;endSize=12;html=1;rounded=0;" edge="1" parent="1" target="_xnIuPefK0gF_MjHe_i0-26">
          <mxGeometry width="160" relative="1" as="geometry">
            <mxPoint x="105" y="271" as="sourcePoint" />
            <mxPoint x="415" y="271" as="targetPoint" />
          </mxGeometry>
        </mxCell>
        <mxCell id="_xnIuPefK0gF_MjHe_i0-30" value="&lt;font style=&quot;font-size: 11px;&quot;&gt;4. Show Member Details&lt;/font&gt;" style="text;strokeColor=none;fillColor=none;align=left;verticalAlign=top;spacingLeft=4;spacingRight=4;overflow=hidden;rotatable=0;points=[[0,0.5],[1,0.5]];portConstraint=eastwest;whiteSpace=wrap;html=1;" vertex="1" parent="1">
          <mxGeometry x="261" y="250" width="140" height="16" as="geometry" />
        </mxCell>
        <mxCell id="_xnIuPefK0gF_MjHe_i0-34" value="" style="endArrow=open;endFill=1;endSize=12;html=1;rounded=0;" edge="1" parent="1">
          <mxGeometry width="160" relative="1" as="geometry">
            <mxPoint x="104.5" y="355" as="sourcePoint" />
            <mxPoint x="419.5" y="355" as="targetPoint" />
          </mxGeometry>
        </mxCell>
        <mxCell id="_xnIuPefK0gF_MjHe_i0-35" value="" style="endArrow=open;endFill=1;endSize=12;html=1;rounded=0;" edge="1" parent="1">
          <mxGeometry width="160" relative="1" as="geometry">
            <mxPoint x="104.5" y="445" as="sourcePoint" />
            <mxPoint x="419.5" y="445" as="targetPoint" />
          </mxGeometry>
        </mxCell>
        <mxCell id="_xnIuPefK0gF_MjHe_i0-36" value="&lt;font style=&quot;font-size: 11px;&quot;&gt;5. Update diet plan&lt;/font&gt;" style="text;strokeColor=none;fillColor=none;align=left;verticalAlign=top;spacingLeft=4;spacingRight=4;overflow=hidden;rotatable=0;points=[[0,0.5],[1,0.5]];portConstraint=eastwest;whiteSpace=wrap;html=1;" vertex="1" parent="1">
          <mxGeometry x="112" y="330" width="140" height="16" as="geometry" />
        </mxCell>
        <mxCell id="_xnIuPefK0gF_MjHe_i0-37" value="&lt;font style=&quot;font-size: 11px;&quot;&gt;6. Update fitness details&lt;/font&gt;" style="text;strokeColor=none;fillColor=none;align=left;verticalAlign=top;spacingLeft=4;spacingRight=4;overflow=hidden;rotatable=0;points=[[0,0.5],[1,0.5]];portConstraint=eastwest;whiteSpace=wrap;html=1;" vertex="1" parent="1">
          <mxGeometry x="270" y="420" width="140" height="16" as="geometry" />
        </mxCell>
      </root>
    </mxGraphModel>
  </diagram>
</mxfile>
